<svg width="14" height="14" viewBox="0 0 14 14" fill="none" xmlns="http://www.w3.org/2000/svg">
<path d="M9.18095 4.11426C9.80238 4.31277 10.2439 4.87067 10.2991 5.52709M6.86026 12.1647C5.59407 11.3854 4.41616 10.4683 3.34759 9.42968C2.59635 8.68172 2.02443 7.76987 1.67565 6.76398C1.04801 4.81268 1.78113 2.57882 3.83283 1.91772C4.91112 1.57059 6.08877 1.76899 6.9974 2.45086C7.90637 1.76982 9.08361 1.57149 10.162 1.91772C12.2137 2.57882 12.9521 4.81268 12.3244 6.76398C11.9756 7.76987 11.4037 8.68172 10.6525 9.42968C9.58391 10.4683 8.40599 11.3854 7.1398 12.1647L7.00267 12.25L6.86026 12.1647Z" stroke="#6D6D6D" stroke-width="0.875" stroke-linecap="round" stroke-linejoin="round"/>
</svg>
