<svg width="16" height="16" viewBox="0 0 16 16" fill="none" xmlns="http://www.w3.org/2000/svg">
<g clip-path="url(#clip0_1_45)">
<path d="M7.33333 14.6667C3.29 14.6667 0 11.3767 0 7.33333C0 3.29 3.29 0 7.33333 0C11.3767 0 14.6667 3.29 14.6667 7.33333C14.6667 11.3767 11.3767 14.6667 7.33333 14.6667ZM7.33333 1.33333C4.02533 1.33333 1.33333 4.02467 1.33333 7.33333C1.33333 10.642 4.02533 13.3333 7.33333 13.3333C10.6413 13.3333 13.3333 10.642 13.3333 7.33333C13.3333 4.02467 10.6413 1.33333 7.33333 1.33333Z" fill="#3B3B3B"/>
<path d="M15.3329 15.9999C15.2453 16 15.1586 15.9827 15.0777 15.9492C14.9968 15.9157 14.9234 15.8665 14.8615 15.8045L11.6649 12.6079C11.5399 12.4828 11.4697 12.3131 11.4697 12.1363C11.4698 11.9594 11.5401 11.7899 11.6652 11.6649C11.7903 11.5399 11.9599 11.4697 12.1368 11.4697C12.3136 11.4698 12.4832 11.5401 12.6082 11.6652L15.8042 14.8619C15.8977 14.955 15.9615 15.0738 15.9874 15.2032C16.0133 15.3326 16.0001 15.4668 15.9496 15.5887C15.8991 15.7106 15.8136 15.8148 15.7037 15.888C15.5939 15.9612 15.4648 16.0002 15.3329 15.9999Z" fill="#3B3B3B"/>
</g>
<defs>
<clipPath id="clip0_1_45">
<rect width="16" height="16" fill="white"/>
</clipPath>
</defs>
</svg>
